{"title":"The Night Of S01E06 1080p HDTV HEVC DD5.1 x265","uid":15593864,"size":979064059,"categoryP":"video","categoryS":"hd___tv_shows","magnet":"?xt=urn:btih:05d0b7ee6beaedf8d44cfccb81a360a12ed191df&amp;dn=The+Night+Of+S01E06+1080p+HDTV+HEVC+DD5.1+x265&amp;tr=udp%3A%2F%2Ftracker.leechers-paradise.org%3A6969&amp;tr=udp%3A%2F%2Fzer0day.ch%3A1337&amp;tr=udp%3A%2F%2Fopen.demonii.com%3A1337&amp;tr=udp%3A%2F%2Ftracker.coppersurfer.tk%3A6969&amp;tr=udp%3A%2F%2Fexodus.desync.com%3A6969","seeders":29,"leechers":0,"uploader":"nayhtut","files":1,"time":1471544124,"description":"[Screenshots]\r\n \nhttps://s3.postimg.org/l7lnc83w3/The_Night_Of_S01_E06_1080p_HDTV_HEVC_DD5_1_x265_0.jpg \nhttps://s3.postimg.org/d3dj7hhgz/The_Night_Of_S01_E06_1080p_HDTV_HEVC_DD5_1_x265_0.jpg \nhttps://s3.postimg.org/o4d9q8z3n/The_Night_Of_S01_E06_1080p_HDTV_HEVC_DD5_1_x265_0.jpg\r\n\r\n\r\nSource: The Night Of S01E06 MULTI 1080p HDTV x264-LiBERTY (1.67 GB)\r\n\r\n__--__--__--__--__--__--__--__--__--__--__--__--__--\r\n\r\n\r\nComplete name                            : The.Night.Of.S01E06.1080p.HDTV.HEVC.DD5.1.x265.mkv\r\nFormat                                   : Matroska\r\nFormat version                           : Version 4 / Version 2\r\nFile size                                : 934 MiB\r\nDuration                                 : 54mn 48s\r\nOverall bit rate                         : 2 382 Kbps\r\nEncoded date                             : UTC 2016-08-18 08:18:41\r\nWriting application                      : mkvmerge v9.3.1 ('Mask Machine') 32bit\r\nWriting library                          : libebml v1.3.4 + libmatroska v1.4.5\r\nDURATION                                 : 00:53:35.699000000\r\nNUMBER_OF_FRAMES                         : 751\r\nNUMBER_OF_BYTES                          : 22311\r\n_STATISTICS_WRITING_APP                  : mkvmerge v9.3.1 ('Mask Machine') 32bit\r\n_STATISTICS_WRITING_DATE_UTC             : 2016-08-18 08:18:41\r\n_STATISTICS_TAGS                         : BPS DURATION NUMBER_OF_FRAMES NUMBER_OF_BYTES\r\n\r\nVideo\r\n\r\nID                                       : 1\r\nFormat                                   : V_MPEGH/ISO/HEVC\r\nCodec ID                                 : V_MPEGH/ISO/HEVC\r\nDuration                                 : 54mn 48s\r\nBit rate                                 : 1 950 Kbps\r\nWidth                                    : 1 920 pixels\r\nHeight                                   : 1 080 pixels\r\nDisplay aspect ratio                     : 16:9\r\nFrame rate                               : 25.000 fps\r\nBits/(Pixel*Frame)                       : 0.038\r\nStream size                              : 765 MiB (82%)\r\nTitle                                    : The.Night.Of.S01E06.1080p.HDTV.HEVC.x265\r\nLanguage                                 : English\r\nDefault                                  : Yes\r\nForced                                   : No\r\nDURATION                                 : 00:54:48.400000000\r\nNUMBER_OF_FRAMES                         : 82210\r\nNUMBER_OF_BYTES                          : 820390165\r\n_STATISTICS_WRITING_APP                  : mkvmerge v9.3.1 ('Mask Machine') 32bit\r\n_STATISTICS_WRITING_DATE_UTC             : 2016-08-18 08:18:41\r\n_STATISTICS_TAGS                         : BPS DURATION NUMBER_OF_FRAMES NUMBER_OF_BYTES\r\n\r\nAudio\r\n\r\nID                                       : 2\r\nFormat                                   : AC-3\r\nFormat/Info                              : Audio Coding 3\r\nMode extension                           : CM (complete main)\r\nFormat settings, Endianness              : Big\r\nCodec ID                                 : A_AC3\r\nDuration                                 : 54mn 48s\r\nBit rate mode                            : Constant\r\nBit rate                                 : 384 Kbps\r\nChannel(s)                               : 6 channels\r\nChannel positions                        : Front: L C R, Side: L R, LFE\r\nSampling rate                            : 48.0 KHz\r\nBit depth                                : 16 bits\r\nCompression mode                         : Lossy\r\nStream size                              : 151 MiB (16%)\r\nTitle                                    : AC-3 5.1\r\nLanguage                                 : English\r\nDefault                                  : Yes\r\nForced                                   : No\r\n\r\nText #1\r\n\r\nID                                       : 3\r\nFormat                                   : UTF-8\r\nCodec ID                                 : S_TEXT/UTF8\r\nCodec ID/Info                            : UTF-8 Plain Text\r\nTitle                                    : English\r\nLanguage                                 : English\r\nDefault                                  : Yes\r\nForced                                   : No\r\n\r\nText #2\r\n\r\nID                                       : 4\r\nFormat                                   : UTF-8\r\nCodec ID                                 : S_TEXT/UTF8\r\nCodec ID/Info                            : UTF-8 Plain Text\r\nTitle                                    : English SDH\r\nLanguage                                 : English\r\nDefault                                  : No\r\nForced                                   : No\r\n\r\n__--__--__--__--__--__--__--__--__--__--__--__--__--\r\n\r\n\r\nIMDb: http://www.imdb.com/title/tt2401256\r\n\r\n\r\n__--__--__--__--__--__--__--__--__--__--__--__--__--\r\n\r\n\r\nAfter adding torrent with magnet link,\r\n\r\nplease add this  following trackers list to the torrent for better seeds.\r\n\r\n\r\nudp://tracker.coppersurfer.tk:6969/announce\r\n\r\nudp://tracker.opentrackr.org:1337/announce\r\n \nhttp://tracker.baravik.org:6970/announce\r\n \nhttp://tracker2.wasabii.com.tw:6969/announce\r\n\r\nudp://9.rarbg.me:2710/announce\r\n\r\n\r\n__--__--__--__--__--__--__--__--__--__--__--__--__--\r\n\r\n\r\nEnjoy!","torrent":{"xt":"urn:btih:05d0b7ee6beaedf8d44cfccb81a360a12ed191df","amp;dn":"The+Night+Of+S01E06+1080p+HDTV+HEVC+DD5.1+x265","amp;tr":["udp%3A%2F%2Ftracker.leechers-paradise.org%3A6969","udp%3A%2F%2Fzer0day.ch%3A1337","udp%3A%2F%2Fopen.demonii.com%3A1337","udp%3A%2F%2Ftracker.coppersurfer.tk%3A6969","udp%3A%2F%2Fexodus.desync.com%3A6969"],"infoHash":"05d0b7ee6beaedf8d44cfccb81a360a12ed191df","infoHashBuffer":{"type":"Buffer","data":[5,208,183,238,107,234,237,248,212,76,252,203,129,163,96,161,46,209,145,223]},"announce":[],"urlList":[]}}